<?xml version="1.0" encoding="UTF-8"?>
<!-- Generator: https://ezgif.com/png-to-svg -->
<svg version="1.1" xmlns="http://www.w3.org/2000/svg" width="179" height="150">
<path d="M0 0 C10.56 0 21.12 0 32 0 C32.54 3.53 33.07 7.05 33.62 10.69 C39.04 44.18 51.08 80.13 78.81 101.75 C95.91 114.02 111.78 116.23 133 119 C132.67 93.92 132.34 68.84 132 43 C127.38 45.31 122.76 47.62 118 50 C107.6 54.03 96.05 53.86 85 53 C84.34 52.67 83.68 52.34 83 52 C87.19 31.28 87.19 31.28 90 23 C91.3 23.04 92.6 23.08 93.94 23.12 C104.17 23.06 113.41 20.01 121.15 13.07 C125.1 8.78 126.57 5.66 129 0 C138.9 0 148.8 0 159 0 C159 14.02 154.47 22.84 145 33 C142.03 35.31 139.06 37.62 136 40 C131.38 45.31 126.76 50.62 122 56 C116.6 62.03 111.05 67.86 105 73 C104.34 73.67 103.68 74.34 103 75 C107.19 95.72 107.19 95.72 110 104 C111.3 103.96 112.6 103.92 113.94 103.88 C124.17 103.94 133.41 106.99 141.15 113.93 C145.1 118.22 146.57 121.34 149 127 C139.1 127 129.2 127 119 127 C119 112.98 123.53 104.16 133 94 C135.97 91.69 138.94 89.38 142 87 C146.62 81.69 151.24 76.38 156 71 C161.4 64.97 166.95 59.14 173 54 C173.66 53.33 174.32 52.66 175 52 C170.81 31.28 170.81 31.28 168 23 C166.7 23.04 165.4 23.08 164.06 23.12 C153.83 23.06 144.59 20.01 136.85 13.07 C132.9 8.78 131.43 5.66 129 0 Z" fill="#2563eb"/>
<path d="M0 0 C3.5 0.56 3.5 0.56 5.94 2.19 C7.96 5.26 8.03 6.94 7.5 10.56 C6.38 12.88 6.38 12.88 4.5 14.56 C1 15.7 -0.83 15.8 -4.31 14.56 C-6.5 12.56 -6.5 12.56 -7.56 9.19 C-7.5 5.56 -7.5 5.56 -6 2.62 C-3.5 0.56 -3.5 0.56 0 0 Z M-4.5 3.56 C-5.27 6.41 -5.27 6.41 -5.5 9.56 C-4.51 10.55 -3.52 11.54 -2.5 12.56 C-2.5 9.59 -2.5 6.62 -2.5 3.56 C-3.16 3.56 -3.82 3.56 -4.5 3.56 Z M2.5 3.56 C2.5 6.53 2.5 9.5 2.5 12.56 C3.49 11.9 4.48 11.24 5.5 10.56 C6 8.06 6 8.06 5.5 5.56 C4.51 4.9 3.52 4.24 2.5 3.56 Z" fill="#1e40af"/>
</svg>